<svg width="53" height="49" viewBox="0 0 53 49" fill="none" xmlns="http://www.w3.org/2000/svg">
<path d="M8.128 13.528V10.6L15.856 7.96H1.768V5.2H15.952V10.48L8.296 13.36C8.888 13.232 9.44 13.144 9.952 13.096C10.48 13.048 10.976 13.024 11.44 13.024C12.336 13.024 13.104 13.12 13.744 13.312C14.384 13.504 14.904 13.76 15.304 14.08C15.72 14.384 16.024 14.744 16.216 15.16C16.408 15.56 16.504 15.976 16.504 16.408C16.504 17.384 16.28 18.232 15.832 18.952C15.4 19.656 14.824 20.232 14.104 20.68C13.4 21.128 12.592 21.464 11.68 21.688C10.784 21.896 9.872 22 8.944 22C7.936 22 6.952 21.888 5.992 21.664C5.048 21.44 4.2 21.096 3.448 20.632C2.712 20.168 2.12 19.576 1.672 18.856C1.224 18.136 1 17.288 1 16.312H4.096C4.096 16.888 4.24 17.368 4.528 17.752C4.832 18.12 5.216 18.416 5.68 18.64C6.144 18.848 6.664 19 7.24 19.096C7.832 19.176 8.424 19.216 9.016 19.216C9.544 19.216 10.064 19.16 10.576 19.048C11.104 18.936 11.568 18.76 11.968 18.52C12.368 18.28 12.688 17.984 12.928 17.632C13.184 17.28 13.312 16.864 13.312 16.384C13.312 15.824 13.128 15.352 12.76 14.968C12.392 14.568 11.944 14.256 11.416 14.032C10.888 13.808 10.32 13.656 9.712 13.576C9.12 13.496 8.592 13.48 8.128 13.528ZM20.4376 9.64L24.2776 5.2H28.5496L24.1816 9.592C23.1256 10.68 22.3496 11.672 21.8536 12.568C21.3576 13.448 21.0376 14.328 20.8936 15.208C20.9096 15.112 20.9736 14.936 21.0856 14.68C21.2136 14.424 21.3816 14.12 21.5896 13.768C21.7976 13.416 22.0536 13.048 22.3576 12.664C22.6616 12.28 23.0056 11.92 23.3896 11.584C23.7736 11.232 24.1896 10.928 24.6376 10.672C25.1016 10.416 25.6056 10.256 26.1496 10.192C26.5176 10.144 26.8776 10.12 27.2296 10.12C28.0616 10.12 28.8376 10.264 29.5576 10.552C30.2776 10.824 30.9016 11.216 31.4296 11.728C31.9576 12.224 32.3736 12.832 32.6776 13.552C32.9816 14.256 33.1336 15.048 33.1336 15.928C33.1336 16.984 32.9256 17.896 32.5096 18.664C32.1096 19.432 31.5576 20.064 30.8536 20.56C30.1656 21.056 29.3656 21.424 28.4536 21.664C27.5416 21.888 26.5736 22 25.5496 22C24.4296 22 23.3896 21.888 22.4296 21.664C21.4696 21.424 20.6376 21.056 19.9336 20.56C19.2456 20.064 18.7016 19.432 18.3016 18.664C17.9016 17.896 17.7016 16.976 17.7016 15.904C17.7016 15.168 17.7736 14.512 17.9176 13.936C18.0616 13.344 18.2536 12.808 18.4936 12.328C18.7496 11.832 19.0376 11.368 19.3576 10.936C19.6936 10.504 20.0536 10.072 20.4376 9.64ZM20.8936 15.952C20.8936 16.528 21.0056 17.024 21.2296 17.44C21.4696 17.84 21.7896 18.176 22.1896 18.448C22.6056 18.704 23.1016 18.896 23.6776 19.024C24.2536 19.152 24.8776 19.216 25.5496 19.216C26.1736 19.216 26.7496 19.152 27.2776 19.024C27.8216 18.896 28.2856 18.704 28.6696 18.448C29.0696 18.176 29.3816 17.832 29.6056 17.416C29.8456 17 29.9656 16.512 29.9656 15.952C29.9656 15.424 29.8376 14.968 29.5816 14.584C29.3256 14.184 28.9896 13.848 28.5736 13.576C28.1736 13.304 27.7096 13.104 27.1816 12.976C26.6696 12.832 26.1576 12.76 25.6456 12.76C25.1176 12.76 24.5656 12.832 23.9896 12.976C23.4296 13.12 22.9176 13.336 22.4536 13.624C22.0056 13.896 21.6296 14.232 21.3256 14.632C21.0376 15.016 20.8936 15.456 20.8936 15.952ZM34.3422 13.648C34.3422 12.4 34.4942 11.256 34.7982 10.216C35.1022 9.176 35.5742 8.288 36.2142 7.552C36.8542 6.8 37.6702 6.224 38.6622 5.824C39.6542 5.408 40.8462 5.2 42.2382 5.2C43.6142 5.2 44.7902 5.408 45.7662 5.824C46.7582 6.224 47.5742 6.792 48.2142 7.528C48.8702 8.264 49.3502 9.152 49.6542 10.192C49.9582 11.232 50.1102 12.384 50.1102 13.648C50.1102 14.912 49.9582 16.064 49.6542 17.104C49.3662 18.128 48.9022 19.008 48.2622 19.744C47.6222 20.464 46.8062 21.024 45.8142 21.424C44.8222 21.808 43.6302 22 42.2382 22C40.7982 22 39.5742 21.824 38.5662 21.472C37.5742 21.12 36.7662 20.6 36.1422 19.912C35.5182 19.208 35.0622 18.336 34.7742 17.296C34.4862 16.256 34.3422 15.04 34.3422 13.648ZM37.3662 13.648C37.3662 14.432 37.4382 15.168 37.5822 15.856C37.7262 16.528 37.9742 17.12 38.3262 17.632C38.6942 18.128 39.1902 18.528 39.8142 18.832C40.4542 19.12 41.2622 19.264 42.2382 19.264C43.1982 19.264 43.9902 19.12 44.6142 18.832C45.2382 18.528 45.7342 18.12 46.1022 17.608C46.4702 17.096 46.7262 16.504 46.8702 15.832C47.0142 15.144 47.0862 14.416 47.0862 13.648C47.0862 12.864 47.0062 12.128 46.8462 11.44C46.6862 10.736 46.4222 10.128 46.0542 9.616C45.6862 9.104 45.1902 8.696 44.5662 8.392C43.9422 8.088 43.1662 7.936 42.2382 7.936C41.2782 7.936 40.4782 8.088 39.8382 8.392C39.2142 8.696 38.7182 9.104 38.3502 9.616C37.9822 10.128 37.7262 10.736 37.5822 11.44C37.4382 12.128 37.3662 12.864 37.3662 13.648Z" fill="black"/>
<path fill-rule="evenodd" clip-rule="evenodd" d="M49.9896 29C49.859 33.3641 47.5084 37.4948 43.4046 40.6516C39.1771 43.9035 33.2088 46 26.4954 46C19.782 46 13.8137 43.9035 9.58618 40.6516C5.48232 37.4948 3.13177 33.3641 3.00113 29H0C0.266551 40.0806 12.0269 49 26.4954 49C40.9639 49 52.7242 40.0806 52.9908 29H49.9896Z" fill="black"/>
</svg>
