<svg width="51" height="80" viewBox="0 0 51 80" fill="none" xmlns="http://www.w3.org/2000/svg">
<path d="M45.9259 0V75.5555H4.44444V0H0V80H50.3704V0H45.9259Z" fill="white"/>
<path d="M28.1482 14.8148H32.5926V29.6296H28.1482V26.6667C27.7915 27.3454 27.3026 29.2262 26.6667 29.6296C26.0307 30.0331 25.9305 29.6094 25.1852 29.6296C22.0366 29.6296 19.2593 27.8334 19.2593 23.7037V14.8148H23.7037V22.2222C23.7037 24.5208 24.2273 25.1852 25.1852 25.1852C26.474 25.1852 28.1482 24.4295 28.1482 22.2222V14.8148Z" fill="white"/>
<path d="M25.1852 59.2592C26.9287 59.2592 28.1481 58.3621 28.1481 56.2963C28.1481 54.2918 26.9287 53.3333 25.1852 53.3333C23.4996 53.3333 22.2222 54.2012 22.2222 56.2963C22.2222 58.3008 23.468 59.2592 25.1852 59.2592ZM17.7778 63.7037V42.963H22.2222V51.8518C22.9044 50.5644 23.468 48.8889 25.1852 48.8889C28.7328 48.8889 32.5926 51.8075 32.5926 56.2963C32.5926 60.6971 28.7328 63.7037 25.1852 63.7037C23.468 63.7037 22.9044 63.5097 22.2222 62.2222V63.7037H17.7778Z" fill="white"/>
</svg>
